<svg width="32" height="32" viewBox="0 0 32 32" fill="none" xmlns="http://www.w3.org/2000/svg">
<path d="M24.3 25.0996C24.797 24.4371 25.7379 24.303 26.4006 24.7998C27.0632 25.2969 27.1974 26.2377 26.7004 26.9004L25.8752 28L26.7004 29.0996C27.1974 29.7623 27.0632 30.7031 26.4006 31.2002C25.7379 31.697 24.797 31.5629 24.3 30.9004L23.2492 29.5H8.75114L7.70036 30.9004C7.20324 31.5629 6.26241 31.6972 5.59977 31.2002C4.93738 30.7031 4.80312 29.7622 5.29997 29.0996L6.12516 28L5.29997 26.9004C4.80312 26.2378 4.93738 25.2969 5.59977 24.7998C6.26241 24.3028 7.20324 24.4371 7.70036 25.0996L8.75114 26.5H23.2492L24.3 25.0996Z" fill="white"/>
<path fill-rule="evenodd" clip-rule="evenodd" d="M17.0002 1C22.523 1 27.0002 5.47715 27.0002 11V13.7637C27.0002 15.1341 26.2259 16.3871 25.0002 17L24.9142 17.043C23.7415 17.6294 23.0002 18.8284 23.0002 20.1396C23.0001 20.6905 22.7813 21.2189 22.3918 21.6084L21.8791 22.1211C21.3166 22.6835 20.5534 22.9999 19.758 23H12.2423C11.447 22.9998 10.6837 22.6835 10.1213 22.1211L9.60856 21.6084C9.21912 21.2189 9.00017 20.6905 9.00016 20.1396C9.00016 18.8284 8.25895 17.6294 7.0861 17.043L7.00016 17C5.77457 16.3871 5.00016 15.134 5.00016 13.7637V11C5.00016 5.47725 9.47745 1.00016 15.0002 1H17.0002ZM13.0002 19C12.7242 19.0002 12.5002 19.224 12.5002 19.5V21.5C12.5002 21.776 12.7242 21.9998 13.0002 22C13.2763 22 13.5002 21.7761 13.5002 21.5V19.5C13.5002 19.2239 13.2763 19 13.0002 19ZM15.0002 19C14.7242 19.0002 14.5002 19.224 14.5002 19.5V21.5C14.5002 21.776 14.7242 21.9998 15.0002 22C15.2763 22 15.5002 21.7761 15.5002 21.5V19.5C15.5002 19.2239 15.2763 19 15.0002 19ZM17.0002 19C16.7242 19.0002 16.5002 19.224 16.5002 19.5V21.5C16.5002 21.776 16.7242 21.9998 17.0002 22C17.2763 22 17.5002 21.7761 17.5002 21.5V19.5C17.5002 19.2239 17.2763 19 17.0002 19ZM19.0002 19C18.7242 19.0002 18.5002 19.224 18.5002 19.5V21.5C18.5002 21.776 18.7242 21.9998 19.0002 22C19.2763 22 19.5002 21.7761 19.5002 21.5V19.5C19.5002 19.2239 19.2763 19 19.0002 19ZM15.5412 14.5C15.2492 14.5001 14.9865 14.6782 14.8781 14.9492L14.2492 16.5205C14.0617 16.9895 14.4073 17.4997 14.9123 17.5H16.8869C17.3683 17.4999 17.7125 17.033 17.5695 16.5732L17.0802 15.002C16.9873 14.7036 16.7111 14.5002 16.3986 14.5H15.5412ZM11.9298 8.34961C10.5873 8.34996 9.47045 9.38402 9.36735 10.7227L9.21891 12.6523C9.1008 14.188 10.3155 15.4997 11.8556 15.5C13.316 15.4999 14.5002 14.3159 14.5002 12.8555V10.9199C14.5001 9.50063 13.3491 8.34968 11.9298 8.34961ZM20.0705 8.34961C18.6513 8.34977 17.5002 9.50068 17.5002 10.9199V12.8555C17.5002 14.3158 18.6844 15.4998 20.1447 15.5C21.685 15.4999 22.8995 14.1881 22.7814 12.6523L22.633 10.7227C22.5298 9.38389 21.4132 8.34974 20.0705 8.34961Z" fill="white"/>
</svg>
