<svg width="22" height="31" viewBox="0 0 22 31" fill="none" xmlns="http://www.w3.org/2000/svg">
<path d="M19.2995 24.0996C19.7965 23.4371 20.7374 23.303 21.4001 23.7998C22.0627 24.2969 22.1969 25.2377 21.6999 25.9004L20.8747 27L21.6999 28.0996C22.1969 28.7623 22.0627 29.7031 21.4001 30.2002C20.7374 30.697 19.7965 30.5629 19.2995 29.9004L18.2487 28.5H3.75068L2.6999 29.9004C2.20278 30.5629 1.26195 30.6972 0.599312 30.2002C-0.0630822 29.7031 -0.197336 28.7622 0.299507 28.0996L1.1247 27L0.299507 25.9004C-0.197336 25.2378 -0.0630822 24.2969 0.599312 23.7998C1.26195 23.3028 2.20278 23.4371 2.6999 24.0996L3.75068 25.5H18.2487L19.2995 24.0996Z" fill="white"/>
<path fill-rule="evenodd" clip-rule="evenodd" d="M11.9997 0C17.5226 0 21.9997 4.47715 21.9997 10V12.7637C21.9997 14.1341 21.2254 15.3871 19.9997 16L19.9138 16.043C18.741 16.6294 17.9997 17.8284 17.9997 19.1396C17.9997 19.6905 17.7808 20.2189 17.3913 20.6084L16.8786 21.1211C16.3161 21.6835 15.5529 21.9999 14.7575 22H7.24189C6.44651 21.9998 5.68323 21.6835 5.1208 21.1211L4.6081 20.6084C4.21866 20.2189 3.99971 19.6905 3.9997 19.1396C3.9997 17.8284 3.2585 16.6294 2.08564 16.043L1.9997 16C0.774108 15.3871 -0.000297419 14.134 -0.000297419 12.7637V10C-0.000297419 4.47725 4.47699 0.00016087 9.9997 0H11.9997ZM7.9997 18C7.7237 18.0002 7.4997 18.224 7.4997 18.5V20.5C7.4997 20.776 7.7237 20.9998 7.9997 21C8.27584 21 8.4997 20.7761 8.4997 20.5V18.5C8.4997 18.2239 8.27584 18 7.9997 18ZM9.9997 18C9.7237 18.0002 9.4997 18.224 9.4997 18.5V20.5C9.4997 20.776 9.7237 20.9998 9.9997 21C10.2758 21 10.4997 20.7761 10.4997 20.5V18.5C10.4997 18.2239 10.2758 18 9.9997 18ZM11.9997 18C11.7237 18.0002 11.4997 18.224 11.4997 18.5V20.5C11.4997 20.776 11.7237 20.9998 11.9997 21C12.2758 21 12.4997 20.7761 12.4997 20.5V18.5C12.4997 18.2239 12.2758 18 11.9997 18ZM13.9997 18C13.7237 18.0002 13.4997 18.224 13.4997 18.5V20.5C13.4997 20.776 13.7237 20.9998 13.9997 21C14.2758 21 14.4997 20.7761 14.4997 20.5V18.5C14.4997 18.2239 14.2758 18 13.9997 18ZM10.5407 13.5C10.2488 13.5001 9.98608 13.6782 9.87763 13.9492L9.24873 15.5205C9.06128 15.9895 9.40681 16.4997 9.91181 16.5H11.8864C12.3678 16.4999 12.712 16.033 12.569 15.5732L12.0798 14.002C11.9868 13.7036 11.7106 13.5002 11.3981 13.5H10.5407ZM6.92939 7.34961C5.58684 7.34996 4.46999 8.38402 4.36689 9.72266L4.21845 11.6523C4.10034 13.188 5.31507 14.4997 6.85517 14.5C8.31556 14.4999 9.4997 13.3159 9.4997 11.8555V9.91992C9.49963 8.50063 8.34869 7.34968 6.92939 7.34961ZM15.07 7.34961C13.6508 7.34977 12.4998 8.50068 12.4997 9.91992V11.8555C12.4997 13.3158 13.6839 14.4998 15.1442 14.5C16.6845 14.4999 17.8991 13.1881 17.781 11.6523L17.6325 9.72266C17.5294 8.38389 16.4127 7.34974 15.07 7.34961Z" fill="white"/>
</svg>
