<svg width="24" height="24" viewBox="0 0 24 24" fill="none" xmlns="http://www.w3.org/2000/svg">
<path d="M12.25 3.93426L12.25 21.0657C12.25 21.4651 11.8049 21.7033 11.4726 21.4818L4.87596 17.084C4.79383 17.0292 4.69732 17 4.59861 17L2.5 17C2.22386 17 2 16.7761 2 16.5L2 8.5C2 8.22386 2.22385 8 2.5 8L4.59861 8C4.69732 8 4.79383 7.97078 4.87596 7.91602L11.4727 3.51823C11.8049 3.29671 12.25 3.53491 12.25 3.93426Z" fill="white"/>
<path d="M20.2514 12.2514L20.2514 12.7486C20.2514 12.8874 20.1389 13 20 13L15.2514 13C15.1126 13 15 12.8874 15 12.7486L15 12.2514C15 12.1126 15.1126 12 15.2514 12L20 12C20.1389 12 20.2514 12.1126 20.2514 12.2514Z" fill="white"/>
<path d="M18.6736 5.21773L18.9222 5.64829C18.9916 5.76854 18.9504 5.9223 18.8301 5.99173L14.7177 8.36602C14.5975 8.43545 14.4437 8.39425 14.3743 8.274L14.1257 7.84344C14.0563 7.72319 14.0975 7.56943 14.2177 7.5L18.3301 5.1257C18.4504 5.05628 18.6041 5.09748 18.6736 5.21773Z" fill="white"/>
<path d="M18.6736 20.274L18.9222 19.8434C18.9916 19.7232 18.9504 19.5694 18.8301 19.5L14.7177 17.1257C14.5975 17.0563 14.4437 17.0975 14.3743 17.2177L14.1257 17.6483C14.0563 17.7685 14.0975 17.9223 14.2177 17.9917L18.3301 20.366C18.4504 20.4355 18.6041 20.3943 18.6736 20.274Z" fill="white"/>
</svg>
