<svg width="24" height="24" viewBox="0 0 24 24" fill="none" xmlns="http://www.w3.org/2000/svg">
<path d="M12.25 2.93426L12.25 21.0657C12.25 21.4651 11.8049 21.7033 11.4727 21.4818L4.87596 17.084C4.79383 17.0292 4.69732 17 4.59861 17L2.5 17C2.22386 17 2 16.7761 2 16.5L2 7.5C2 7.22386 2.22386 7 2.5 7L4.59861 7C4.69733 7 4.79383 6.97078 4.87596 6.91602L11.4727 2.51823C11.8049 2.29671 12.25 2.53491 12.25 2.93426Z" fill="white"/>
<path d="M14.8127 8.17778L14.2794 8.71111C14.1812 8.80929 14.1812 8.96848 14.2794 9.06666L21.035 15.8222C21.1331 15.9204 21.2923 15.9204 21.3905 15.8222L21.9238 15.2889C22.022 15.1907 22.022 15.0315 21.9238 14.9333L15.1683 8.17778C15.0701 8.07959 14.9109 8.07959 14.8127 8.17778Z" fill="white"/>
<path d="M21.5389 8.17778L22.0722 8.71111C22.1704 8.80929 22.1704 8.96848 22.0722 9.06666L15.3167 15.8222C15.2185 15.9204 15.0593 15.9204 14.9611 15.8222L14.4278 15.2889C14.3296 15.1907 14.3296 15.0315 14.4278 14.9333L21.1833 8.17778C21.2815 8.07959 21.4407 8.07959 21.5389 8.17778Z" fill="white"/>
</svg>
